<?xml version="1.0" encoding="utf-8"?>
<!-- Generator: Adobe Illustrator 25.2.3, SVG Export Plug-In . SVG Version: 6.00 Build 0)  -->
<svg version="1.1" id="Calque_1" xmlns="http://www.w3.org/2000/svg" xmlns:xlink="http://www.w3.org/1999/xlink" x="0px" y="0px"
	 viewBox="0 0 20 20" style="enable-background:new 0 0 20 20;" xml:space="preserve">
<path d="M12.4,2.5h-2.2H10H7.8c0,2.9-2.4,5.3-5.3,5.3v2.4c0.6,0,1.1-0.1,1.6-0.2v6.7c0,0.5,0.4,0.9,0.9,0.9h3.5v-3.9
	c0-0.3,0.2-0.5,0.5-0.5h2.1c0.3,0,0.5,0.2,0.5,0.5v3.9h3.5c0.5,0,0.9-0.4,0.9-0.9V9.9c0.5,0.1,1,0.2,1.6,0.2V7.8
	C14.7,7.8,12.4,5.4,12.4,2.5z"/>
</svg>
