<?xml version="1.0" standalone="no"?>
<!DOCTYPE svg PUBLIC "-//W3C//DTD SVG 20010904//EN"
 "http://www.w3.org/TR/2001/REC-SVG-20010904/DTD/svg10.dtd">
<svg version="1.0" xmlns="http://www.w3.org/2000/svg"
 width="260.000000pt" height="260.000000pt" viewBox="0 0 260.000000 260.000000"
 preserveAspectRatio="xMidYMid meet">
<metadata>
Created by potrace 1.11, written by Peter Selinger 2001-2013
</metadata>
<g transform="translate(0.000000,260.000000) scale(0.100000,-0.100000)"
fill="#000000" stroke="none">
<path d="M1218 2575 c-1 -1 -34 -5 -73 -9 -182 -15 -403 -96 -563 -204 -308
-210 -507 -526 -559 -893 -14 -96 -8 -318 11 -409 81 -394 326 -719 676 -899
83 -43 254 -104 325 -116 22 -3 62 -10 90 -15 56 -9 297 -6 365 5 173 27 413
128 550 231 145 109 287 268 366 410 72 130 133 311 151 456 14 103 7 316 -12
408 -3 14 -7 36 -10 49 -29 146 -129 354 -239 495 -203 260 -520 443 -836 481
-62 8 -236 15 -242 10z m257 -90 c302 -51 565 -207 759 -449 121 -151 216
-371 244 -561 9 -66 9 -285 -1 -358 -30 -223 -160 -478 -332 -653 -91 -93
-138 -131 -245 -195 -131 -79 -300 -140 -430 -157 -87 -11 -339 -7 -402 7 -32
7 -59 12 -60 11 -5 -1 -171 57 -209 74 -118 50 -243 139 -354 251 -95 94 -126
134 -186 235 -115 192 -167 382 -167 611 0 414 208 786 567 1016 139 89 308
148 501 176 39 5 271 0 315 -8z"/>
<path d="M1164 1955 c10 -26 168 -403 176 -420 20 -42 68 -160 67 -162 -1 0
-42 -2 -92 -4 -323 -10 -578 -249 -608 -572 -3 -26 -1 -50 5 -53 9 -6 66 -8
149 -5 14 1 26 7 26 14 1 56 18 131 44 184 93 194 321 294 528 232 42 -12 36
-4 106 -164 7 -16 36 -84 64 -150 l51 -120 90 1 c50 0 93 3 96 7 3 3 -110 279
-252 614 l-257 608 -99 0 c-61 0 -97 -4 -94 -10z"/>
</g>
</svg>
