<svg xmlns="http://www.w3.org/2000/svg" viewBox="0 0 20 20">
<symbol id="linkedin" viewBox="0 0 20 20">
    <rect x="5.9" y="8.6" width="1.8" height="5.5"/>
    <path d="M10.5,9.6v-1H8.6v5.5h1.9v-2.6c0-1.6,1.8-1.7,1.8,0v2.6h1.8V11C14.1,8,11.3,8.2,10.5,9.6z"/>
    <path d="M6.8,5.9c-0.5,0-0.9,0.4-0.9,0.9s0.4,0.9,0.9,0.9s0.9-0.4,0.9-0.9S7.3,5.9,6.8,5.9z"/>
</symbol>
<symbol id="home" viewBox="0 0 20 20">
    <path d="M12.4,2.5h-2.2H10H7.8c0,2.9-2.4,5.3-5.3,5.3v2.4c0.6,0,1.1-0.1,1.6-0.2v6.7c0,0.5,0.4,0.9,0.9,0.9h3.5v-3.9 c0-0.3,0.2-0.5,0.5-0.5h2.1c0.3,0,0.5,0.2,0.5,0.5v3.9h3.5c0.5,0,0.9-0.4,0.9-0.9V9.9c0.5,0.1,1,0.2,1.6,0.2V7.8 C14.7,7.8,12.4,5.4,12.4,2.5z"/>
</symbol>
<symbol id="tel" viewBox="0 0 20 20">
    <path d="M16.7,13.2l-3.1-1.5c-0.3-0.1-0.6,0-0.7,0.2l-1,1.5c-1.5,0.3-3-0.2-4-1.3s-1.5-2.6-1.3-4l1.5-1C8.4,7,8.5,6.6,8.3,6.4 L6.8,3.3C6.7,3.1,6.3,2.9,6.1,3.1c-1,0.5-2,1.6-2.4,2.6c-1.3,3.1-0.6,6.6,1.7,8.9c2.4,2.4,5.8,3,8.9,1.7l0,0 c1.1-0.4,2.2-1.4,2.6-2.4C17.1,13.7,16.9,13.3,16.7,13.2z"/>
</symbol>
<symbol id="user" viewBox="0 0 20 20">
    <path d="M10,11.1c4.9,0,8.9,4,8.9,8.9h-4.1c0-2.6-2.1-4.8-4.8-4.8S5.2,17.3,5.2,20H1.1C1.1,15.1,5.1,11.1,10,11.1z M10,0 c2.6,0,4.8,2.1,4.8,4.8c0,2.6-2.1,4.8-4.8,4.8c-2.6,0-4.8-2.1-4.8-4.8S7.4,0,10,0z"/>
</symbol>
<symbol id="arrow" viewBox="0 0 20 20">
    <path d="M9.8,9.5c-1.3,0.8-2.2,2.3-2.2,4h1.5c0-1.8,1.4-3.3,3.3-3.3V8.8c-1.8,0-3.3-1.4-3.3-3.3H7.6C7.6,7.2,8.5,8.7,9.8,9.5"/>
</symbol>
<symbol id="burger" viewBox="0 0 20 20">
    <rect id="kk" y="7.5" width="20" height="4"/>
    <rect width="20" height="4"/>
    <rect y="15" width="20" height="4"/>
</symbol>
</svg>
