<svg version="1.1" xmlns="http://www.w3.org/2000/svg" xmlns:xlink="http://www.w3.org/1999/xlink" x="0px" y="0px" viewBox="0 0 111 112" style="enable-background:new 0 0 111 112;" xml:space="preserve" preserveAspectRatio="none">
<style type="text/css">
	.st0{fill-rule:evenodd;clip-rule:evenodd;fill:#e8ae3a;}
</style>
<path class="st0" d="M55.1,4.4C26.5,4.4,3.4,27.5,3.4,56.1c0,28.5,23.2,51.7,51.7,51.7c28.5,0,51.7-23.2,51.7-51.7
	C106.8,27.5,83.6,4.4,55.1,4.4 M55.1,111.1C24.7,111.1,0,86.4,0,56.1S24.7,1,55.1,1s55.1,24.7,55.1,55.1S85.4,111.1,55.1,111.1
	M49.4,27.4l10.9,25.8c-1.2-0.2-2.4-0.3-3.6-0.3c-14.8,0-26.9,12.1-26.9,26.9v0.4h7.8v-0.4c0-10.5,8.6-19.1,19.1-19.1
	c2.6,0,5.1,0.5,7.5,1.6l7.6,17.9h8.5L58,27.4H49.4z"/>
</svg>
