<?xml version="1.0" encoding="utf-8"?>
<!-- Generator: Adobe Illustrator 19.2.1, SVG Export Plug-In . SVG Version: 6.00 Build 0)  -->
<svg version="1.1" id="Calque_1" xmlns="http://www.w3.org/2000/svg" xmlns:xlink="http://www.w3.org/1999/xlink" x="0px" y="0px"
	 viewBox="0 0 55.4 55.4" width="55.4pt" height="55.4pt" xml:space="preserve">
<style type="text/css">
	.st0{fill:#FF5900;}
	.st1{fill:#FFFFFF;}
	.st2{fill:#F1F3EF;}
	.st3{fill:#FCFCFC;}
</style>
<title>Objet dynamique vectoriel</title>
<circle class="st0" cx="27.7" cy="27.7" r="27.7"/>
<path class="st1" d="M29.4,22.9c0.8,0.5,1.7,0.7,2.6,0.7c2.3,0,3.9-1.1,4.2-4.2c-0.8,0.9-1.9,1.3-3,1.3c-2.8,0-4.6-1.6-4.6-4.5
	c-0.1-2.6,1.9-4.8,4.5-4.8c0.1,0,0.3,0,0.4,0c3.1,0,5,2.2,5,6.2c0,5.8-2.6,8-6.3,8c-0.9,0-1.7-0.2-2.5-0.6L29.4,22.9z M36.1,16
	c0.1-1.4-1-2.6-2.4-2.7c-0.1,0-0.2,0-0.3,0c-1.4-0.1-2.6,0.9-2.7,2.3c0,0.1,0,0.3,0,0.4c-0.1,1.4,0.9,2.6,2.3,2.7c0.1,0,0.2,0,0.4,0
	c1.4,0.1,2.6-1,2.7-2.4C36.1,16.2,36.1,16.1,36.1,16L36.1,16z"/>
<polygon class="st1" points="19.2,12.4 19.2,25.5 21.5,25.5 21.5,11.5 "/>
<path class="st2" d="M26,32.5c-0.8-0.5-1.7-0.7-2.6-0.7c-2.3,0-3.9,1.1-4.2,4.2c0.8-0.9,1.9-1.3,3-1.3c2.8,0,4.6,1.6,4.6,4.5
	c0.1,2.6-1.9,4.8-4.5,4.8c-0.1,0-0.3,0-0.4,0c-3.1,0-5-2.2-5-6.2c0-5.8,2.6-8,6.3-8c0.9,0,1.7,0.2,2.5,0.6L26,32.5z M19.3,39.4
	c-0.1,1.4,1,2.6,2.4,2.7c0.1,0,0.2,0,0.3,0c1.4,0.1,2.6-0.9,2.7-2.3c0-0.1,0-0.3,0-0.4c0.1-1.4-0.9-2.6-2.3-2.7c-0.1,0-0.2,0-0.4,0
	c-1.4-0.1-2.6,1-2.7,2.4C19.3,39.2,19.3,39.3,19.3,39.4L19.3,39.4z"/>
<polygon class="st3" points="36.2,43 36.2,30 34,30 34,43.9 "/>
</svg>
