<svg xmlns="http://www.w3.org/2000/svg" viewBox="0 0 9 9">
    <symbol id="linkedin">
        <rect x="0.4" y="3.1" width="1.8" height="5.5"/>
        <path d="M5,4.1v-1H3.1v5.5H5V6c0-1.6,1.8-1.7,1.8,0v2.6h1.8V5.5C8.6,2.5,5.8,2.7,5,4.1z"/>
        <path d="M1.3,0.4c-0.5,0-0.9,0.4-0.9,0.9c0,0.5,0.4,0.9,0.9,0.9s0.9-0.4,0.9-0.9C2.2,0.8,1.8,0.4,1.3,0.4z"/>
    </symbol>
    <symbol id="home">
        <path d="M10.3,0.9H8.1H7.9H5.7c0,2.9-2.4,5.3-5.3,5.3v2.4C1,8.6,1.5,8.5,2,8.4v6.7c0,0.5,0.4,0.9,0.9,0.9h3.5v-3.9 c0-0.3,0.2-0.5,0.5-0.5H9c0.3,0,0.5,0.2,0.5,0.5v3.9h3.5c0.5,0,0.9-0.4,0.9-0.9V8.4c0.5,0.1,1,0.2,1.6,0.2V6.2 C12.6,6.2,10.3,3.8,10.3,0.9z"/>
    </symbol>
    <symbol id="tel">
        <path d="M14.2,10.7l-3.1-1.5c-0.3-0.1-0.6,0-0.7,0.2l-1,1.5c-1.5,0.3-3-0.2-4-1.3S3.9,7,4.1,5.6l1.5-1 C5.9,4.5,6,4.1,5.8,3.9L4.3,0.8C4.2,0.6,3.8,0.4,3.6,0.6c-1,0.5-2,1.6-2.4,2.6c-1.3,3.1-0.6,6.6,1.7,8.9c2.4,2.4,5.8,3,8.9,1.7l0,0 c1.1-0.4,2.2-1.4,2.6-2.4C14.6,11.2,14.4,10.8,14.2,10.7z"/>
    </symbol>
</svg>
