<?xml version="1.0" encoding="utf-8"?>
<!-- Generator: Adobe Illustrator 25.2.3, SVG Export Plug-In . SVG Version: 6.00 Build 0)  -->
<svg version="1.1" id="Calque_1" xmlns="http://www.w3.org/2000/svg" xmlns:xlink="http://www.w3.org/1999/xlink" x="0px" y="0px"
	 viewBox="0 0 20 20" style="enable-background:new 0 0 20 20;" xml:space="preserve">
<path d="M16.7,13.2l-3.1-1.5c-0.3-0.1-0.6,0-0.7,0.2l-1,1.5c-1.5,0.3-3-0.2-4-1.3s-1.5-2.6-1.3-4l1.5-1C8.4,7,8.5,6.6,8.3,6.4
	L6.8,3.3C6.7,3.1,6.3,2.9,6.1,3.1c-1,0.5-2,1.6-2.4,2.6c-1.3,3.1-0.6,6.6,1.7,8.9c2.4,2.4,5.8,3,8.9,1.7l0,0
	c1.1-0.4,2.2-1.4,2.6-2.4C17.1,13.7,16.9,13.3,16.7,13.2z"/>
</svg>
